<svg id="visual" viewBox="0 0 600 900" width="600" height="900" xmlns="http://www.w3.org/2000/svg" xmlns:xlink="http://www.w3.org/1999/xlink" version="1.1"><path d="M0 775L32 775L32 693L63 693L63 734L95 734L95 705L126 705L126 783L158 783L158 667L189 667L189 686L221 686L221 720L253 720L253 701L284 701L284 657L316 657L316 656L347 656L347 781L379 781L379 676L411 676L411 651L442 651L442 762L474 762L474 764L505 764L505 674L537 674L537 704L568 704L568 678L600 678L600 788L600 0L600 0L568 0L568 0L537 0L537 0L505 0L505 0L474 0L474 0L442 0L442 0L411 0L411 0L379 0L379 0L347 0L347 0L316 0L316 0L284 0L284 0L253 0L253 0L221 0L221 0L189 0L189 0L158 0L158 0L126 0L126 0L95 0L95 0L63 0L63 0L32 0L32 0L0 0Z" fill="#2fb66c"></path><path d="M0 474L32 474L32 591L63 591L63 476L95 476L95 560L126 560L126 487L158 487L158 600L189 600L189 560L221 560L221 533L253 533L253 471L284 471L284 590L316 590L316 559L347 559L347 590L379 590L379 568L411 568L411 608L442 608L442 538L474 538L474 563L505 563L505 495L537 495L537 497L568 497L568 528L600 528L600 595L600 0L600 0L568 0L568 0L537 0L537 0L505 0L505 0L474 0L474 0L442 0L442 0L411 0L411 0L379 0L379 0L347 0L347 0L316 0L316 0L284 0L284 0L253 0L253 0L221 0L221 0L189 0L189 0L158 0L158 0L126 0L126 0L95 0L95 0L63 0L63 0L32 0L32 0L0 0Z" fill="#2aa160"></path><path d="M0 289L32 289L32 322L63 322L63 361L95 361L95 332L126 332L126 414L158 414L158 333L189 333L189 390L221 390L221 404L253 404L253 326L284 326L284 429L316 429L316 375L347 375L347 383L379 383L379 294L411 294L411 332L442 332L442 359L474 359L474 298L505 298L505 289L537 289L537 382L568 382L568 376L600 376L600 402L600 0L600 0L568 0L568 0L537 0L537 0L505 0L505 0L474 0L474 0L442 0L442 0L411 0L411 0L379 0L379 0L347 0L347 0L316 0L316 0L284 0L284 0L253 0L253 0L221 0L221 0L189 0L189 0L158 0L158 0L126 0L126 0L95 0L95 0L63 0L63 0L32 0L32 0L0 0Z" fill="#248d54"></path><path d="M0 117L32 117L32 192L63 192L63 172L95 172L95 147L126 147L126 108L158 108L158 176L189 176L189 194L221 194L221 208L253 208L253 179L284 179L284 209L316 209L316 185L347 185L347 247L379 247L379 130L411 130L411 231L442 231L442 236L474 236L474 216L505 216L505 240L537 240L537 126L568 126L568 169L600 169L600 167L600 0L600 0L568 0L568 0L537 0L537 0L505 0L505 0L474 0L474 0L442 0L442 0L411 0L411 0L379 0L379 0L347 0L347 0L316 0L316 0L284 0L284 0L253 0L253 0L221 0L221 0L189 0L189 0L158 0L158 0L126 0L126 0L95 0L95 0L63 0L63 0L32 0L32 0L0 0Z" fill="#1f7a48"></path></svg>