<svg id="visual" viewBox="0 0 900 600" width="900" height="600" xmlns="http://www.w3.org/2000/svg" xmlns:xlink="http://www.w3.org/1999/xlink" version="1.1"><path d="M0 517L47 517L47 462L95 462L95 489L142 489L142 470L189 470L189 522L237 522L237 445L284 445L284 457L332 457L332 480L379 480L379 467L426 467L426 437L474 437L474 437L521 437L521 520L568 520L568 450L616 450L616 434L663 434L663 508L711 508L711 509L758 509L758 449L805 449L805 469L853 469L853 452L900 452L900 525L900 0L900 0L853 0L853 0L805 0L805 0L758 0L758 0L711 0L711 0L663 0L663 0L616 0L616 0L568 0L568 0L521 0L521 0L474 0L474 0L426 0L426 0L379 0L379 0L332 0L332 0L284 0L284 0L237 0L237 0L189 0L189 0L142 0L142 0L95 0L95 0L47 0L47 0L0 0Z" fill="#2fb66c"></path><path d="M0 315L47 315L47 394L95 394L95 317L142 317L142 373L189 373L189 324L237 324L237 400L284 400L284 373L332 373L332 355L379 355L379 314L426 314L426 393L474 393L474 372L521 372L521 393L568 393L568 378L616 378L616 405L663 405L663 358L711 358L711 375L758 375L758 329L805 329L805 331L853 331L853 352L900 352L900 396L900 0L900 0L853 0L853 0L805 0L805 0L758 0L758 0L711 0L711 0L663 0L663 0L616 0L616 0L568 0L568 0L521 0L521 0L474 0L474 0L426 0L426 0L379 0L379 0L332 0L332 0L284 0L284 0L237 0L237 0L189 0L189 0L142 0L142 0L95 0L95 0L47 0L47 0L0 0Z" fill="#2aa160"></path><path d="M0 192L47 192L47 214L95 214L95 240L142 240L142 221L189 221L189 276L237 276L237 221L284 221L284 260L332 260L332 269L379 269L379 217L426 217L426 285L474 285L474 250L521 250L521 255L568 255L568 196L616 196L616 221L663 221L663 239L711 239L711 198L758 198L758 192L805 192L805 255L853 255L853 251L900 251L900 267L900 0L900 0L853 0L853 0L805 0L805 0L758 0L758 0L711 0L711 0L663 0L663 0L616 0L616 0L568 0L568 0L521 0L521 0L474 0L474 0L426 0L426 0L379 0L379 0L332 0L332 0L284 0L284 0L237 0L237 0L189 0L189 0L142 0L142 0L95 0L95 0L47 0L47 0L0 0Z" fill="#248d54"></path><path d="M0 78L47 78L47 128L95 128L95 114L142 114L142 98L189 98L189 72L237 72L237 117L284 117L284 129L332 129L332 139L379 139L379 119L426 119L426 139L474 139L474 123L521 123L521 165L568 165L568 86L616 86L616 154L663 154L663 157L711 157L711 144L758 144L758 160L805 160L805 83L853 83L853 113L900 113L900 111L900 0L900 0L853 0L853 0L805 0L805 0L758 0L758 0L711 0L711 0L663 0L663 0L616 0L616 0L568 0L568 0L521 0L521 0L474 0L474 0L426 0L426 0L379 0L379 0L332 0L332 0L284 0L284 0L237 0L237 0L189 0L189 0L142 0L142 0L95 0L95 0L47 0L47 0L0 0Z" fill="#1f7a48"></path></svg>