<svg id="visual" viewBox="0 0 540 960" width="540" height="960" xmlns="http://www.w3.org/2000/svg" xmlns:xlink="http://www.w3.org/1999/xlink" version="1.1"><rect x="0" y="0" width="540" height="960" fill="#2FB66C"></rect><path d="M0 769L54 769L54 700L108 700L108 672L162 672L162 705L216 705L216 792L270 792L270 886L324 886L324 803L378 803L378 781L432 781L432 908L486 908L486 871L540 871L540 750L540 0L540 0L486 0L486 0L432 0L432 0L378 0L378 0L324 0L324 0L270 0L270 0L216 0L216 0L162 0L162 0L108 0L108 0L54 0L54 0L0 0Z" fill="#248d54"></path><path d="M0 605L54 605L54 493L108 493L108 439L162 439L162 457L216 457L216 485L270 485L270 462L324 462L324 676L378 676L378 726L432 726L432 641L486 641L486 695L540 695L540 687L540 0L540 0L486 0L486 0L432 0L432 0L378 0L378 0L324 0L324 0L270 0L270 0L216 0L216 0L162 0L162 0L108 0L108 0L54 0L54 0L0 0Z" fill="#238650"></path><path d="M0 302L54 302L54 416L108 416L108 263L162 263L162 360L216 360L216 404L270 404L270 296L324 296L324 468L378 468L378 470L432 470L432 495L486 495L486 490L540 490L540 371L540 0L540 0L486 0L486 0L432 0L432 0L378 0L378 0L324 0L324 0L270 0L270 0L216 0L216 0L162 0L162 0L108 0L108 0L54 0L54 0L0 0Z" fill="#21804c"></path><path d="M0 93L54 93L54 84L108 84L108 91L162 91L162 162L216 162L216 191L270 191L270 236L324 236L324 184L378 184L378 204L432 204L432 299L486 299L486 120L540 120L540 264L540 0L540 0L486 0L486 0L432 0L432 0L378 0L378 0L324 0L324 0L270 0L270 0L216 0L216 0L162 0L162 0L108 0L108 0L54 0L54 0L0 0Z" fill="#1f7a48"></path></svg>